<mxfile host="Electron" agent="Mozilla/5.0 (Windows NT 10.0; Win64; x64) AppleWebKit/537.36 (KHTML, like Gecko) draw.io/26.0.9 Chrome/128.0.6613.186 Electron/32.2.5 Safari/537.36" version="26.0.9">
  <diagram name="Page-1" id="SlSP1e00wjy-5UMX2HVp">
    <mxGraphModel dx="1434" dy="836" grid="1" gridSize="10" guides="1" tooltips="1" connect="1" arrows="1" fold="1" page="1" pageScale="1" pageWidth="850" pageHeight="1100" math="0" shadow="0">
      <root>
        <mxCell id="0" />
        <mxCell id="1" parent="0" />
        <mxCell id="fIKRTQ843b1PRTKBoT_D-6" style="rounded=0;orthogonalLoop=1;jettySize=auto;html=1;exitX=0.5;exitY=0.5;exitDx=0;exitDy=0;exitPerimeter=0;entryX=0;entryY=0.5;entryDx=0;entryDy=0;endArrow=none;startFill=0;" edge="1" parent="1" source="fIKRTQ843b1PRTKBoT_D-1" target="fIKRTQ843b1PRTKBoT_D-3">
          <mxGeometry relative="1" as="geometry" />
        </mxCell>
        <mxCell id="fIKRTQ843b1PRTKBoT_D-7" style="rounded=0;orthogonalLoop=1;jettySize=auto;html=1;exitX=0.5;exitY=0.5;exitDx=0;exitDy=0;exitPerimeter=0;entryX=0;entryY=0.5;entryDx=0;entryDy=0;endArrow=none;startFill=0;" edge="1" parent="1" source="fIKRTQ843b1PRTKBoT_D-1" target="fIKRTQ843b1PRTKBoT_D-4">
          <mxGeometry relative="1" as="geometry" />
        </mxCell>
        <mxCell id="fIKRTQ843b1PRTKBoT_D-8" style="rounded=0;orthogonalLoop=1;jettySize=auto;html=1;exitX=0.5;exitY=0.5;exitDx=0;exitDy=0;exitPerimeter=0;entryX=0;entryY=0.5;entryDx=0;entryDy=0;endArrow=none;startFill=0;" edge="1" parent="1" source="fIKRTQ843b1PRTKBoT_D-1" target="fIKRTQ843b1PRTKBoT_D-5">
          <mxGeometry relative="1" as="geometry" />
        </mxCell>
        <mxCell id="fIKRTQ843b1PRTKBoT_D-1" value="Registered User" style="shape=umlActor;verticalLabelPosition=bottom;verticalAlign=top;html=1;outlineConnect=0;" vertex="1" parent="1">
          <mxGeometry x="70" y="320" width="30" height="60" as="geometry" />
        </mxCell>
        <mxCell id="fIKRTQ843b1PRTKBoT_D-2" value="Discovery" style="swimlane;startSize=0;labelBackgroundColor=default;labelBorderColor=default;" vertex="1" parent="1">
          <mxGeometry x="210" y="60" width="310" height="520" as="geometry" />
        </mxCell>
        <mxCell id="fIKRTQ843b1PRTKBoT_D-3" value="&lt;font size=&quot;3&quot;&gt;UC 3.2 Tìm kiếm người dùng&lt;/font&gt;" style="ellipse;whiteSpace=wrap;html=1;" vertex="1" parent="fIKRTQ843b1PRTKBoT_D-2">
          <mxGeometry x="100" y="70" width="150" height="100" as="geometry" />
        </mxCell>
        <mxCell id="fIKRTQ843b1PRTKBoT_D-9" style="rounded=0;orthogonalLoop=1;jettySize=auto;html=1;entryX=0.5;entryY=0;entryDx=0;entryDy=0;endArrow=open;endFill=0;dashed=1;dashPattern=12 12;" edge="1" parent="fIKRTQ843b1PRTKBoT_D-2" source="fIKRTQ843b1PRTKBoT_D-4" target="fIKRTQ843b1PRTKBoT_D-5">
          <mxGeometry relative="1" as="geometry" />
        </mxCell>
        <mxCell id="fIKRTQ843b1PRTKBoT_D-10" value="&amp;lt;&amp;lt;extends&amp;gt;&amp;gt;" style="edgeLabel;html=1;align=center;verticalAlign=middle;resizable=0;points=[];" vertex="1" connectable="0" parent="fIKRTQ843b1PRTKBoT_D-9">
          <mxGeometry x="-0.0857" y="1" relative="1" as="geometry">
            <mxPoint as="offset" />
          </mxGeometry>
        </mxCell>
        <mxCell id="fIKRTQ843b1PRTKBoT_D-4" value="&lt;font size=&quot;3&quot;&gt;UC 3.1 Danh sách Chat&lt;/font&gt;" style="ellipse;whiteSpace=wrap;html=1;" vertex="1" parent="fIKRTQ843b1PRTKBoT_D-2">
          <mxGeometry x="20" y="230" width="150" height="100" as="geometry" />
        </mxCell>
        <mxCell id="fIKRTQ843b1PRTKBoT_D-5" value="&lt;font size=&quot;3&quot;&gt;UC 3.3 Hiển thị trạng thái online&lt;/font&gt;" style="ellipse;whiteSpace=wrap;html=1;" vertex="1" parent="fIKRTQ843b1PRTKBoT_D-2">
          <mxGeometry x="80" y="390" width="150" height="100" as="geometry" />
        </mxCell>
        <mxCell id="fIKRTQ843b1PRTKBoT_D-12" style="rounded=0;orthogonalLoop=1;jettySize=auto;html=1;entryX=0.8;entryY=0.13;entryDx=0;entryDy=0;entryPerimeter=0;dashed=1;dashPattern=12 12;endArrow=open;endFill=0;" edge="1" parent="fIKRTQ843b1PRTKBoT_D-2" source="fIKRTQ843b1PRTKBoT_D-3" target="fIKRTQ843b1PRTKBoT_D-5">
          <mxGeometry relative="1" as="geometry" />
        </mxCell>
        <mxCell id="fIKRTQ843b1PRTKBoT_D-13" value="&amp;lt;&amp;lt;extends&amp;gt;&amp;gt;" style="edgeLabel;html=1;align=center;verticalAlign=middle;resizable=0;points=[];" vertex="1" connectable="0" parent="fIKRTQ843b1PRTKBoT_D-12">
          <mxGeometry x="-0.6663" y="2" relative="1" as="geometry">
            <mxPoint as="offset" />
          </mxGeometry>
        </mxCell>
      </root>
    </mxGraphModel>
  </diagram>
</mxfile>
